<svg viewBox="0 0 1024.036 1089.841" xmlns="http://www.w3.org/2000/svg"><path d="M476.037 32.92h96.322v.15c23.073.02 44.012 9.43 59.15 24.587 15.023 15.024 24.377 35.887 24.415 58.942h.15v50.797l1.853.718c14.57 5.632 28.725 12.114 42.407 19.332l29.915-29.934-.076-.076.038-.02c.907-.925 1.87-1.775 2.854-2.588 3.836-3.497 7.88-6.577 12.057-9.185 5.12-3.194 10.715-5.84 16.61-7.88 29.406-10.28 63.498-3.704 86.874 19.673l68.108 68.108c.926.926 1.795 1.89 2.59 2.89 14.475 15.856 21.713 36.077 21.713 56.298h.15c0 21.298-8.144 42.67-24.415 59.018l-.076.076.076.076-35.963 35.963.643 1.436c6.35 14.325 11.887 28.99 16.536 43.88h42.33v.152c23.074.02 44.032 9.45 59.17 24.586 15.023 15.044 24.377 35.907 24.415 58.943h.15v96.398h-.15c-.02 23.056-9.43 44.014-24.586 59.15-15.044 15.025-35.907 24.38-58.962 24.417v.15H889.54l-.698 1.853c-5.65 14.532-12.095 28.668-19.295 42.312l29.972 29.953c.887.888 1.72 1.833 2.512 2.778 3.534 3.855 6.633 7.937 9.26 12.132 3.194 5.14 5.84 10.715 7.88 16.61 10.28 29.406 3.704 63.517-19.673 86.893l-68.11 68.108c-.925.926-1.89 1.795-2.87 2.59-15.856 14.475-36.077 21.713-56.317 21.713v.15c-21.298 0-42.67-8.145-59-24.416l-.075-.076-.076.076-35.868-35.868-1.55.68c-1.002.435-2.003.832-3.024 1.19-13.36 5.803-27.005 10.886-40.876 15.214v42.33h-.15c0 23.075-9.412 44.014-24.568 59.15-15.043 15.044-35.906 24.38-58.96 24.417v.15h-96.38v-.15c-23.055-.02-44.013-9.43-59.15-24.586-15.043-15.042-24.378-35.905-24.416-58.94h-.15v-50.76l-1.872-.757c-14.57-5.65-28.725-12.095-42.407-19.314l-29.895 29.895.076.076-.037.04c-.888.887-1.814 1.738-2.778 2.512-3.855 3.534-7.918 6.633-12.132 9.24-5.12 3.214-10.715 5.84-16.61 7.9-29.293 10.243-63.365 3.628-86.8-19.767l-.075.076-68.127-68.107c-.868-.85-1.68-1.758-2.437-2.684-3.572-3.875-6.67-7.976-9.317-12.21-3.194-5.14-5.84-10.714-7.88-16.61-10.243-29.33-3.685-63.384 19.673-86.74l.075-.077-.076-.076 35.792-35.793-.68-1.55c-6.274-14.173-11.792-28.82-16.46-43.9H83.736v-.15c-23.074 0-44.032-9.43-59.17-24.587C9.544 624.854.19 604.01.152 580.955H0v-96.38h.15c.02-23.073 9.43-44.012 24.587-59.15 15.043-15.042 35.906-24.377 58.96-24.415v-.15h50.78l.718-1.872c5.537-14.25 11.81-28.082 18.84-41.48-4.667-4.31-8.862-8.24-11.338-10.697-38.268-38.267-70.187-86.457-18.16-138.483l68.107-68.108c.907-.908 1.814-1.74 2.778-2.514 15.874-14.532 36.133-21.79 56.41-21.79v-.15c21.298 0 42.67 8.145 59 24.416l.075.076.076-.076 35.963 35.963 1.455-.643.058-.02-.057-.13c14.174-6.275 28.82-11.774 43.9-16.423v-42.294h.152c0-23.074 9.41-44.013 24.567-59.17 15.042-15.023 35.924-24.358 58.96-24.396v-.15h.057zm35.982 285.037h.037v.15c62.74 0 119.472 25.362 160.443 66.35 40.97 40.953 66.313 97.665 66.332 160.387h.15v.113h-.15c0 62.61-25.4 119.32-66.426 160.368l.076.076c-40.97 40.953-97.664 66.314-160.386 66.333v.15h-.113v-.15c-62.74-.02-119.472-25.38-160.443-66.35s-66.313-97.683-66.332-160.386h-.15v-.113h.15c0-62.61 25.4-119.32 66.426-160.368l-.076-.076c40.97-40.97 97.683-66.313 160.386-66.332v-.15h.076zm.037 75.194v.152h-.113v-.15c-41.727.018-79.617 17.026-107.132 44.54h-.132c-27.44 27.44-44.43 65.35-44.43 107.19h.152v.113h-.15c.018 41.727 17.045 79.617 44.54 107.132 27.516 27.515 65.444 44.56 107.19 44.56v-.15h.113v.15c41.727-.018 79.617-17.045 107.132-44.54h.132c27.44-27.44 44.428-65.35 44.428-107.19h-.15v-.113h.15c-.02-41.727-17.046-79.617-44.542-107.132-27.515-27.515-65.443-44.56-107.19-44.56zm60.265-284.883h-96.34v-.15c-2.23 0-4.366 1.02-5.973 2.626-1.55 1.55-2.514 3.647-2.514 5.896h.15v71.055h-.093c.02 17.16-11.773 32.656-29.197 36.643-20.542 4.687-40.498 11.395-59.642 19.88l-.038-.113c-1.096.49-4.762 2.25-10.866 5.235l-.057-.113c-2.57 1.247-5.235 2.608-7.994 4.044-14.59 9.526-34.357 7.88-47.17-4.95l-54.88-54.86.077-.058c-1.57-1.512-3.723-2.287-5.953-2.287v-.15c-1.776 0-3.59.585-5.12 1.72l-.814.83-68.09 68.09c-5.952 5.953 5.916 19.692 18.162 31.937 8.447 8.447 12.964 12.567 17.16 16.403 6.84 6.274 13.303 12.17 14.91 13.777l.018.02-.076.093c12.132 12.114 14.76 31.427 5.235 46.564-11.018 17.536-20.41 36.17-27.97 55.672-1.247 3.232-2.362 6.142-3.288 8.712-.227.945-.51 1.87-.832 2.816-1.323 3.855-2.362 6.88-3.06 8.995-3.686 16.932-18.767 29.613-36.814 29.613H83.7v-.15c-2.23 0-4.366 1.02-5.992 2.645-1.53 1.53-2.495 3.628-2.495 5.877h.15v96.38h-.15c0 2.23 1.002 4.364 2.627 5.97 1.55 1.55 3.647 2.514 5.896 2.514v-.15h71.056v.093c17.14 0 32.656 11.773 36.643 29.197 4.706 20.542 11.395 40.498 19.88 59.642 1.455 3.25 3.175 6.898 5.12 10.904l-.112.057c1.247 2.57 2.608 5.254 4.044 7.994 9.506 14.61 7.862 34.357-4.95 47.17l-54.805 54.804-.076-.076c-2.362 2.42-3.005 5.934-1.946 8.976.132.397.416.945.832 1.587l.416.662.737.718.038.02 68.09 68.088-.077.076.076.076c2.306 2.306 5.82 2.93 8.882 1.852.416-.132.964-.416 1.606-.813l.66-.436.738-.756.076.076 50.155-50.193c12.13-12.188 31.502-14.834 46.658-5.29 17.537 11 36.19 20.41 55.673 27.97 2.212.85 6.067 2.23 11.53 4.1l-.04.132.04.02c2.758.963 5.63 1.908 8.58 2.834 17.14 3.534 30.047 18.71 30.047 36.89v77.575h-.15c0 2.212 1.02 4.348 2.645 5.973 1.53 1.55 3.628 2.513 5.877 2.513v-.15h96.378v.15c2.23 0 4.365-1.02 5.972-2.646 1.55-1.53 2.513-3.628 2.513-5.877h-.15v-71.056h.075c0-17.14 11.792-32.656 29.216-36.643 19.975-4.573 38.986-10.81 56.883-18.54.888-.49 1.814-.944 2.76-1.36 3.25-1.436 6.897-3.156 10.903-5.12 3.59-1.74 6.37-3.1 8.334-4.102 14.57-9.298 34.167-7.597 46.886 5.12l54.88 54.88-.095.076c1.57 1.512 3.742 2.268 5.972 2.268v.15c1.776 0 3.572-.566 5.102-1.7l.83-.85 68.09-68.09c2.38-2.38 3.06-5.895 2.022-8.9-.15-.397-.435-.945-.832-1.587-.15-.266-.32-.492-.49-.7l-50.95-50.95.057-.056c-12.15-12.114-14.74-31.465-5.216-46.583 11.018-17.536 20.41-36.188 27.97-55.69 1.266-3.308 2.362-6.237 3.307-8.845.227-.907.51-1.795.813-2.684 1.342-3.93 2.362-6.953 3.06-9.07 3.724-16.895 18.804-29.537 36.814-29.537h77.557v.15c2.23 0 4.366-1.02 5.992-2.645 1.53-1.53 2.495-3.628 2.495-5.877h-.15v-96.397h.15c0-2.21-1.002-4.347-2.627-5.972-1.55-1.53-3.647-2.512-5.896-2.512v.15l-71.056-.056c-17.14.02-32.656-11.792-36.643-29.216-4.8-21.014-11.452-40.952-19.748-59.642-.435-1.002-2.21-4.668-5.254-10.923l.113-.056c-1.002-2.022-2.495-4.876-4.498-8.655-9.033-14.533-7.22-33.866 5.386-46.49l54.88-54.86.075.056c1.492-1.55 2.267-3.723 2.267-5.953h.15c0-1.795-.585-3.61-1.757-5.14l-68.883-68.883c-2.38-2.4-5.877-3.06-8.882-2.022-.416.15-.964.435-1.606.832l-.68.454-.72.737-.075-.075-50.136 50.155c-12.115 12.246-31.504 14.873-46.68 5.33-17.536-11.018-36.188-20.41-55.69-27.97-2.212-.85-6.086-2.25-11.53-4.12l.058-.132h-.057c-2.777-.964-5.687-1.91-8.673-2.854-17.103-3.553-29.934-18.728-29.934-36.89V116.6h.15c0-2.21-1.02-4.365-2.645-5.972-1.53-1.55-3.628-2.513-5.877-2.513v.15h-.037z"/></svg>